<svg version="1.1" viewBox="0.0 0.0 960.0 540.0" fill="none" stroke="none" stroke-linecap="square" stroke-miterlimit="10" xmlns:xlink="http://www.w3.org/1999/xlink" xmlns="http://www.w3.org/2000/svg"><clipPath id="g2bb3b5059b6_0_0.0"><path d="m0 0l960.0 0l0 540.0l-960.0 0l0 -540.0z" clip-rule="nonzero"/></clipPath><g clip-path="url(#g2bb3b5059b6_0_0.0)"><path fill="#ffffff" d="m0 0l960.0 0l0 540.0l-960.0 0z" fill-rule="evenodd"/><path fill="#000000" fill-opacity="0.0" d="m268.03412 222.16446l0 0c0 -11.330048 9.184814 -20.514847 20.514862 -20.514847l172.82855 0c5.4408875 0 10.658905 2.161377 14.506195 6.0086517c3.84729 3.8472748 6.008667 9.065308 6.008667 14.506195l0 82.056915c0 11.330048 -9.184814 20.514832 -20.514862 20.514832l-172.82855 0c-11.330048 0 -20.514862 -9.184784 -20.514862 -20.514832z" fill-rule="evenodd"/><path fill="#2b86d6" d="m376.18777 274.5298l-2.125 21.203125l-58.96875 0l0 -2.703125l40.59375 -56.03125l-13.765625 0q-4.203125 0 -6.0625 0.25q-1.859375 0.234375 -3.5 0.984375q-1.90625 0.703125 -4.203125 3.734375q-2.296875 3.03125 -6.15625 10.125l-3.578125 0l1.9375 -19.171875l54.625 0l0 2.703125l-40.59375 56.03125l15.8125 0q7.4375 0 10.109375 -0.59375q2.671875 -0.59375 3.921875 -2.140625q2.515625 -3.0625 4.65625 -6.703125q2.15625 -3.65625 3.96875 -7.6875l3.328125 0zm53.815735 20.28125q-1.9375 0.828125 -4.59375 1.53125q-2.65625 0.71875 -5.625 0.71875q-5.4375 0 -8.015625 -1.609375q-2.5625 -1.625 -3.5 -4.625l-0.265625 0q-1.5 1.5 -2.890625 2.5625q-1.390625 1.0625 -2.984375 1.8125q-2.09375 0.96875 -4.015625 1.4375q-1.921875 0.46875 -5.375 0.46875q-5.140625 0 -8.765625 -3.03125q-3.625 -3.03125 -3.625 -8.03125q0 -2.890625 0.796875 -4.890625q0.796875 -2.015625 2.25 -3.578125q1.328125 -1.40625 3.078125 -2.328125q1.75 -0.9375 3.828125 -1.734375q3.984375 -1.46875 9.5625 -3.03125q5.578125 -1.578125 8.140625 -2.8125l0 -4.25q0 -1.109375 -0.171875 -2.921875q-0.171875 -1.8125 -0.75 -3.0625q-0.625 -1.40625 -1.953125 -2.375q-1.328125 -0.984375 -3.5 -0.984375q-1.9375 0 -3.25 0.5625q-1.296875 0.546875 -2.09375 1.125q0.125 0.875 0.75 2.703125q0.625 1.8125 0.625 3.484375q0 0.765625 -0.40625 1.890625q-0.390625 1.125 -1.15625 1.796875q-1.015625 0.875 -2.28125 1.375q-1.25 0.484375 -3.859375 0.484375q-3.71875 0 -5.625 -1.796875q-1.90625 -1.796875 -1.90625 -4.671875q0 -2.484375 1.96875 -4.453125q1.96875 -1.96875 4.796875 -3.25q2.796875 -1.328125 6.421875 -2.0625q3.640625 -0.734375 6.734375 -0.734375q4.296875 0 7.875 0.515625q3.59375 0.515625 6.46875 2.109375q2.734375 1.546875 4.34375 4.5q1.625 2.9375 1.625 7.671875q0 5.0 -0.203125 11.859375q-0.1875 6.859375 -0.1875 9.03125q0 1.984375 0.59375 3.140625q0.59375 1.15625 1.828125 1.734375q0.765625 0.34375 2.375 0.421875q1.609375 0.0625 2.9375 0.0625l0 3.234375zm-22.0 -23.0625q-2.46875 0.828125 -4.90625 1.921875q-2.4375 1.078125 -3.984375 2.28125q-1.640625 1.234375 -2.578125 3.15625q-0.921875 1.921875 -0.921875 4.546875q0 3.453125 1.5625 5.0q1.578125 1.546875 3.890625 1.546875q2.421875 0 4.0 -1.0q1.578125 -1.0 2.765625 -2.453125l0.171875 -15.0zm58.34796 21.953125q-2.828125 1.234375 -6.0625 2.21875q-3.234375 1.0 -7.875 1.0q-6.90625 0 -10.25 -3.359375q-3.34375 -3.359375 -3.34375 -9.609375l0 -27.171875l-7.96875 0l0 -4.78125l8.140625 0l0 -13.40625l14.390625 0l0 13.40625l12.390625 0l0 4.78125l-12.296875 0l0 24.25q0 5.1875 1.4375 7.359375q1.4375 2.171875 5.15625 2.171875q1.1875 0 3.3125 -0.171875q2.125 -0.1875 2.96875 -0.40625l0 3.71875z" fill-rule="nonzero"/><path fill="#2b86d6" d="m462.09973 240.16801l0 0c0 -3.949356 3.2015991 -7.150955 7.1509705 -7.150955l169.6666 0c1.8965454 0 3.715393 0.7534027 5.0564575 2.0944672c1.3410645 1.3410645 2.0944824 3.1599426 2.0944824 5.056488l0 67.71385c0 3.9493408 -3.2015991 7.15094 -7.15094 7.15094l-169.6666 0c-3.9493713 0 -7.1509705 -3.2015991 -7.1509705 -7.15094z" fill-rule="evenodd"/><path fill="#000000" fill-opacity="0.0" d="m448.3727 228.46588l200.62991 0l0 109.88977l-200.62991 0z" fill-rule="evenodd"/><path fill="#ffffff" d="m517.4102 286.69336q2.84375 1.9375 4.609375 4.890625q1.765625 2.9375 1.765625 6.921875q0 4.78125 -2.015625 8.078125q-2.015625 3.296875 -5.765625 5.203125q-3.984375 2.03125 -9.1875 2.875q-5.203125 0.84375 -12.25 0.84375l-32.625 0l0 -3.453125q1.375 -0.125 3.453125 -0.390625q2.09375 -0.265625 2.921875 -0.625q1.640625 -0.671875 2.234375 -1.75q0.609375 -1.078125 0.609375 -2.8125l0 -44.265625q0 -1.59375 -0.5 -2.65625q-0.484375 -1.0625 -2.34375 -1.859375q-1.359375 -0.578125 -3.1875 -0.953125q-1.8125 -0.375 -3.1875 -0.59375l0 -3.4531097l34.140625 0q12.875 0 18.578125 3.5468597q5.71875 3.53125 5.71875 10.4375q0 3.1875 -1.28125 5.609375q-1.28125 2.40625 -3.671875 4.171875q-2.171875 1.640625 -5.1875 2.84375q-3.0 1.1875 -6.453125 1.984375l0 0.84375q3.453125 0.359375 7.171875 1.53125q3.71875 1.171875 6.453125 3.03125zm-14.25 -18.90625q0 -5.21875 -2.953125 -8.140625q-2.9375 -2.921875 -8.828125 -2.921875q-0.828125 0 -2.1875 0.0625q-1.34375 0.0625 -2.328125 0.109375l0 23.28125l2.3125 0q7.171875 0 10.578125 -3.34375q3.40625 -3.34375 3.40625 -9.046875zm3.09375 30.140625q0 -6.546875 -3.890625 -10.046875q-3.890625 -3.5 -11.203125 -3.5q-0.84375 0 -2.234375 0.078125q-1.390625 0.0625 -2.0625 0.109375l0 22.96875q0.40625 1.640625 2.484375 2.765625q2.078125 1.125 5.046875 1.125q5.265625 0 8.5625 -3.53125q3.296875 -3.546875 3.296875 -9.96875zm69.06244 -21.109375q3.265625 3.046875 4.984375 7.296875q1.734375 4.25 1.734375 9.21875q0 4.90625 -1.703125 9.265625q-1.703125 4.359375 -4.96875 7.46875q-3.5 3.3125 -8.359375 5.09375q-4.84375 1.765625 -11.078125 1.765625q-5.40625 0 -9.9375 -1.546875q-4.53125 -1.5625 -8.03125 -4.65625q-3.375 -2.96875 -5.328125 -7.328125q-1.9375 -4.359375 -1.9375 -9.765625q0 -5.296875 1.703125 -9.4375q1.703125 -4.140625 5.109375 -7.375q3.28125 -3.09375 8.078125 -4.796875q4.8125 -1.71875 10.734375 -1.71875q6.203125 0 10.921875 1.71875q4.71875 1.703125 8.078125 4.796875zm-11.328125 30.671875q0.96875 -2.46875 1.421875 -6.015625q0.46875 -3.546875 0.46875 -8.234375q0 -3.09375 -0.4375 -7.078125q-0.4375 -3.984375 -1.328125 -6.296875q-1.0625 -2.78125 -2.953125 -4.375q-1.875 -1.59375 -4.75 -1.59375q-3.140625 0 -5.03125 1.734375q-1.875 1.71875 -2.890625 4.46875q-0.921875 2.515625 -1.28125 5.90625q-0.359375 3.390625 -0.359375 7.0625q0 4.8125 0.3125 7.984375q0.3125 3.171875 1.5 6.359375q1.03125 2.734375 2.921875 4.328125q1.90625 1.59375 4.828125 1.59375q2.65625 0 4.5625 -1.484375q1.90625 -1.484375 3.015625 -4.359375zm74.22772 8.015625l-27.671875 0l0 -3.234375q2.171875 -0.125 3.625 -0.359375q1.46875 -0.25 1.46875 -1.015625q0 -0.34375 -0.375 -1.09375q-0.375 -0.765625 -0.953125 -1.6875q-0.84375 -1.375 -2.90625 -4.34375q-2.046875 -2.96875 -3.859375 -5.484375q-2.578125 2.96875 -4.3125 5.09375q-1.71875 2.125 -3.609375 4.5625q-0.671875 0.796875 -0.9375 1.46875q-0.265625 0.65625 -0.265625 0.78125q0 1.015625 1.4375 1.546875q1.4375 0.53125 3.4375 0.53125l0 3.234375l-17.984375 0l0 -3.234375q3.59375 -0.75 5.734375 -2.390625q2.15625 -1.640625 2.90625 -2.515625q3.234375 -3.453125 5.46875 -5.734375q2.234375 -2.28125 6.0 -6.40625q-2.53125 -3.484375 -6.125 -8.53125q-3.578125 -5.046875 -5.96875 -8.28125q-1.1875 -1.59375 -2.921875 -2.453125q-1.71875 -0.875 -4.46875 -1.140625l0 -3.21875l27.046875 0l0 3.21875q-1.453125 0 -2.875 0.1875q-1.421875 0.171875 -1.421875 0.609375q0 0.359375 0.21875 0.890625q0.234375 0.53125 0.578125 1.109375q0.84375 1.421875 2.65625 4.171875q1.8125 2.734375 3.90625 5.75q1.984375 -2.4375 3.328125 -3.984375q1.359375 -1.5625 3.484375 -4.390625q0.796875 -1.0625 0.984375 -1.59375q0.203125 -0.53125 0.203125 -0.65625q0 -0.765625 -0.953125 -1.359375q-0.9375 -0.59375 -3.734375 -0.734375l0 -3.21875l17.625 0l0 3.21875q-2.171875 0.359375 -4.21875 1.46875q-2.03125 1.109375 -4.234375 3.453125q-3.453125 3.578125 -5.03125 5.25q-1.578125 1.65625 -5.203125 5.5q2.03125 2.875 5.875 8.375q3.859375 5.484375 6.65625 9.25q1.1875 1.6875 2.671875 2.75q1.484375 1.0625 4.71875 1.40625l0 3.234375z" fill-rule="nonzero"/><path fill="#000000" fill-opacity="0.0" d="m461.68503 252.50131l0 3.9370117" fill-rule="evenodd"/><path stroke="#2b86d6" stroke-width="1.0" stroke-linejoin="round" stroke-linecap="butt" d="m461.68503 252.50131l0 3.9370117" fill-rule="evenodd"/></g></svg>